<?xml version="1.0" encoding="utf-8"?>
<!-- Generator: Adobe Illustrator 16.0.3, SVG Export Plug-In . SVG Version: 6.00 Build 0)  -->
<!DOCTYPE svg PUBLIC "-//W3C//DTD SVG 1.1//EN" "http://www.w3.org/Graphics/SVG/1.1/DTD/svg11.dtd">
<svg version="1.1" id="Logo02" xmlns="http://www.w3.org/2000/svg" xmlns:xlink="http://www.w3.org/1999/xlink" x="0px" y="0px"
	 width="595.665px" height="121.607px" viewBox="0 0 595.665 121.607" enable-background="new 0 0 595.665 121.607"
	 xml:space="preserve">
<g id="Image_2_">
	<path fill-rule="evenodd" clip-rule="evenodd" fill="#2F7CB7" d="M76.048,99.107c-2.282,1.523-3.907,3.551-5.853,5.223
		c-0.852,0.732-0.416,1.551-0.244,2.305c1.088,4.783,2.218,9.558,3.37,14.326c0.105,0.436,0.088,0.607-0.36,0.619
		c-0.275,0.008-0.551-0.012-0.827-0.012c-11.596,0-23.191-0.018-34.787,0.027c-1.162,0.004-1.461-0.396-1.73-1.474
		c-1.037-4.161-2.237-8.28-3.386-12.451c-2.414,4.119-4.416,8.394-6.5,12.626c-0.452,0.918-0.941,1.319-2.051,1.31
		c-7.509-0.066-15.019-0.036-22.528-0.04c-0.813,0-1.428,0.354-1.026-1.229c1.682-6.615,3.361-13.232,4.991-19.86
		c0.797-3.241,1.581-6.488,2.358-9.735c0.313-1.303,0.218-2.777-0.01-4.119C6.821,82.828,6.982,78.95,6.184,75.18
		c-0.103-0.488,0.193-0.73,0.484-0.949c7.001-5.279,13.777-10.842,20.625-16.314c6.002-4.797,12.089-9.49,18.157-14.205
		c0.805-0.625,0.441-1.231,0.102-1.816c-1.885-3.248-3.789-6.484-5.708-9.712c-2.934-4.936-5.884-9.861-8.829-14.79
		c-0.349-0.584-0.616-1.254-1.082-1.725c-2.276-2.299-1.303-4.817-0.566-7.316c0.749-2.538,1.642-5.037,2.274-7.602
		c0.232-0.94,0.401-0.835,1.121-0.556c5.884,2.277,11.784,4.511,17.684,6.747c6.141,2.328,12.286,4.645,18.432,6.959
		c1.596,0.602,3.207,1.165,4.802,1.769c0.616,0.234,1.088,0.502,0.301,1.186c-0.832,0.722-1.554,1.57-2.359,2.324
		c-0.466,0.437-0.622,0.7-0.101,1.308c3.462,4.047,6.874,8.137,10.279,12.231c4.225,5.079,8.282,10.308,12.713,15.198
		c1.691,1.867,1.758,3.917,2.071,6.003c0.63,4.201,1.149,8.426,1.621,12.644c0.378,3.373,1.17,6.721,1.061,10.146
		c-0.11,3.446,0.427,6.863,0.383,10.314c-0.045,3.646,1.735,6.814,3.121,10.073c2.287,5.376,4.489,10.788,6.775,16.164
		c1.013,2.382,2.076,4.74,3.048,7.142c0.443,1.096,0.279,1.18-0.734,1.178c-8.945-0.018-17.89-0.012-26.835,0.002
		c-0.583,0-0.813-0.062-1.059-0.761c-1.787-5.074-3.706-10.102-5.567-15.149C77.595,103.487,76.829,101.289,76.048,99.107z"/>
	<path fill-rule="evenodd" clip-rule="evenodd" fill="#2F7CB7" d="M76.503,96.604c-2.088-9.088-4.11-17.883-6.243-27.165
		c-0.757,5.646-1.843,10.733-2.498,15.898c-0.462,3.646-1.292,7.246-1.949,10.867c-0.219,1.211,0.182,2.316,0.66,3.393
		c2.854,6.435,3.793,13.396,5.572,20.127c0.157,0.596,0.075,0.869-0.666,0.866c-6.902-0.028-13.804-0.042-20.706,0.019
		c-0.732,0.008-0.864-0.455-0.99-0.795c-3.085-8.343-6.737-16.463-9.776-24.825c-0.404-1.112-0.598-2.135-0.598-3.254
		c-0.005-9.606-0.005-19.214-0.006-28.821c0-0.197,0-0.395,0-0.592c-0.078-0.015-0.155-0.028-0.233-0.043
		c-1.025,3.852-1.984,7.721-3.094,11.547c-1.214,4.186-1.648,8.66-3.681,12.529c-2.955,5.623-6.354,11.014-9.556,16.508
		c-2.544,4.365-5.078,8.738-7.615,13.109c-0.786,1.354-1.574,2.707-2.344,4.07c-0.288,0.511-0.714,0.547-1.236,0.543
		c-3.147-0.02-6.295-0.054-9.441,0.015c-1.088,0.023-0.994-0.526-0.824-1.202c2.389-9.5,4.815-18.99,7.143-28.504
		c0.292-1.195,0.288-2.561,0.039-3.768c-0.394-1.903-0.351-3.828-0.611-5.732c-0.253-1.85-0.324-3.727-0.607-5.572
		c-0.119-0.773,0.422-0.992,0.783-1.278c5.643-4.484,11.328-8.915,16.973-13.396c4.571-3.628,9.09-7.323,13.653-10.961
		c2.417-1.927,4.908-3.762,7.304-5.715c0.617-0.503,0.758-0.278,0.994,0.242c2.417,5.316,4.821,10.637,7.262,15.941
		c1.667,3.62,3.388,7.216,5.077,10.825c0.675,1.445,1.33,2.898,2.271,4.278c-0.368-1.911-0.721-3.825-1.108-5.732
		c-0.854-4.211-1.728-8.417-2.59-12.626c-0.621-3.029-1.196-6.068-1.878-9.084c-0.223-0.986-0.125-1.351,0.994-1.31
		c2.137,0.079,4.278,0.023,7.011,0.023c-4.292-4.294-8.566-7.934-12.626-12.416c2.25,0.454,4.157,0.838,6.064,1.222
		c0.032-0.079,0.063-0.158,0.095-0.237c-3.245-2.597-6.508-5.173-9.73-7.798c-2.753-2.242-5.448-4.555-8.189-6.811
		c-2.896-2.383-5.83-4.72-8.717-7.113c-0.93-0.771-1.831-1.458-1.233-3.067c1.065-2.865,1.898-5.824,2.662-8.787
		c0.214-0.83,0.397-0.809,1.024-0.569c5.359,2.056,10.723,4.101,16.089,6.138c6.14,2.331,12.283,4.653,18.427,6.973
		c1.635,0.618,3.278,1.213,5.457,2.018c-0.858,0.695-1.445,1.267-2.121,1.7c-1.473,0.944-1.401,1.92-0.322,3.157
		c2.588,2.965,5.129,5.971,7.657,8.988c3.208,3.829,6.373,7.694,9.576,11.527c1.901,2.276,3.671,4.701,5.821,6.716
		c1.389,1.302,1.513,2.88,1.643,4.348c0.274,3.089,0.78,6.146,1.09,9.229c0.296,2.947,0.758,5.885,1.28,8.804
		c0.335,1.878-0.008,2.692-1.72,3.737c-3.307,2.02-6.636,4.016-9.813,6.228c-1.763,1.228-2.405,3.44-3.553,5.202
		C80.683,89.538,78.704,92.978,76.503,96.604z"/>
	<path fill-rule="evenodd" clip-rule="evenodd" fill="#2F7CB7" d="M98.333,74.504c-0.268,3.883,0.396,7.281,0.312,10.727
		c-0.094,3.842,0.99,7.432,2.581,10.934c2.477,5.457,4.725,11.015,7.035,16.545c1.073,2.567,2.133,5.145,3.389,7.867
		c-1.63,0-3.094,0-4.559,0c-3.917,0-7.835-0.045-11.751,0.035c-0.857,0.018-1.222-0.373-1.356-0.982
		c-1.136-5.156-2.289-10.311-3.308-15.491c-1.075-5.466-2.063-10.95-2.973-16.446c-0.292-1.765-0.487-3.545-0.939-5.28
		c-0.079-0.304-0.051-0.391,0.256-0.587C90.684,79.489,94.32,77.11,98.333,74.504z"/>
	<path fill-rule="evenodd" clip-rule="evenodd" fill="#2F7CB7" d="M38.313,70.325c0,7.169-0.021,14.337,0.019,21.505
		c0.008,1.374-0.328,2.541-0.974,3.768c-3.274,6.217-6.426,12.498-9.647,18.743c-0.952,1.846-2.022,3.63-2.965,5.48
		c-0.25,0.489-0.438,0.767-1.034,0.762c-3.286-0.025-6.572-0.012-10.084-0.012c1.829-3.203,3.527-6.218,5.266-9.21
		c2.48-4.266,4.977-8.523,7.494-12.769c2.177-3.671,4.5-7.262,6.555-10.999c1.711-3.111,2.025-6.715,3.061-10.068
		C36.745,75.123,37.11,72.605,38.313,70.325z"/>
	<path fill-rule="evenodd" clip-rule="evenodd" fill="#2F7CB7" d="M93.327,120.578c-2.658,0-5.193-0.006-7.728,0.004
		c-0.505,0.002-0.696-0.015-0.93-0.688c-2.347-6.735-4.673-13.484-7.349-20.091c-0.734-1.813,0.064-2.737,0.781-3.887
		c2.518-4.042,5.107-8.038,7.925-12.454C88.187,96.134,90.055,108.465,93.327,120.578z"/>
	<path fill-rule="evenodd" clip-rule="evenodd" fill="#2F7CB7" d="M61.626,46.035c-2.483,0-4.357,0.026-6.23-0.014
		c-0.71-0.015-0.976,0.088-0.777,0.901c1.416,5.804,2.473,11.682,3.607,17.544c0.154,0.795,0.316,1.556,0.09,2.455
		c-7.177-17.3-16.12-33.669-26.019-49.536c0.125-0.123,0.251-0.246,0.376-0.369c7.002,5.607,14.004,11.214,21.007,16.821
		c-0.065,0.083-0.131,0.167-0.196,0.25c-1.581-0.333-3.162-0.667-4.871-1.027C52.894,37.33,57.097,41.519,61.626,46.035z"/>
	<path fill-rule="evenodd" clip-rule="evenodd" fill="#2F7CB7" d="M49.036,120.576c-3.98,0-7.77-0.027-11.558,0.02
		c-0.917,0.012-0.987-0.587-1.146-1.177c-1.048-3.908-2.065-7.825-3.15-11.724c-0.182-0.65-0.35-1.334-0.079-1.875
		c1.806-3.611,3.557-7.254,5.703-10.848C42.232,103.547,45.604,111.984,49.036,120.576z"/>
	<path fill-rule="evenodd" clip-rule="evenodd" fill="#2F7CB7" d="M70.645,75.825c0.598,2.383,1.236,4.756,1.783,7.149
		c0.835,3.657,1.549,7.342,2.439,10.984c0.269,1.1,0.252,2.283,0.851,3.311c0.158,0.271,0.095,0.654-0.234,0.877
		c-2.123,1.435-3.612,3.574-5.68,5.086c-0.715,0.521-0.799,0.328-1.034-0.324c-0.489-1.354-0.992-2.711-1.598-4.017
		c-0.836-1.8-0.144-3.578,0.066-5.319c0.363-3.018,1.035-5.996,1.552-8.994c0.499-2.896,0.965-5.797,1.445-8.695
		C70.372,75.863,70.508,75.844,70.645,75.825z"/>
</g>
<g id="Letras_1_">
	<path fill="#2F7CB7" d="M111.952,87.625V39.079h17.222v48.546c0,10.634,7.282,18.262,17.222,18.262s17.222-7.628,17.222-18.262
		V39.079h17.222v48.546c0,19.766-14.448,33.982-34.444,33.982S111.952,107.391,111.952,87.625z"/>
	<path fill="#2F7CB7" d="M196.211,62.196h17.107v10.056c3.93-8.322,10.865-11.674,20.112-11.674c0.462,0,1.156,0,1.502,0.115v15.72
		c-2.658-0.925-5.317-1.271-7.628-1.271c-9.825,0-13.986,6.473-13.986,20.69v24.156h-17.107V62.196z"/>
	<path fill="#2F7CB7" d="M284.4,67.051l-5.664,11.327c-3.93-2.543-10.056-4.276-14.448-4.276c-3.352,0-5.779,1.502-5.779,3.699
		c0,8.899,28.896,4.854,28.896,24.85c0,10.98-9.708,18.957-23.117,18.957c-8.9,0-18.378-3.353-24.504-8.67l7.397-12.252
		c4.392,4.393,11.212,7.282,16.297,7.282c4.393,0,7.513-1.618,7.513-4.161c0-8.438-28.896-5.779-28.896-25.313
		c0-10.403,9.247-17.916,21.961-17.916C270.067,60.578,277.35,62.89,284.4,67.051z"/>
	<path fill="#2F7CB7" d="M335.602,115.135c-3.699,3.698-9.131,6.473-17.338,6.473c-13.639,0-23.695-7.86-23.695-19.881
		c0-12.483,10.75-19.072,23.695-19.072c7.396,0,13.291,2.197,17.338,5.317v-4.97c0-6.357-4.74-9.825-12.945-9.825
		c-6.012,0-12.252,2.427-17.686,5.896l-3.814-12.368c7.859-3.931,15.951-6.126,25.082-6.126c15.951,0,26.586,6.588,26.586,19.881
		v39.529h-17.223V115.135z M322.887,108.199c8.092,0,13.523-3.352,13.523-7.282c0-3.93-5.201-6.011-12.945-6.011
		s-12.484,2.081-12.484,6.357C310.981,105.31,315.374,108.199,322.887,108.199z"/>
	<path fill="#50BBD5" d="M385.995,39.079v65.884h38.721v15.025h-55.943V39.079H385.995z"/>
	<path fill="#49B2C9" d="M442.862,34.456c5.549,0,10.057,4.392,10.057,10.171c0,5.664-4.508,10.056-10.057,10.056
		c-5.547,0-10.055-4.392-10.055-10.056C432.807,38.848,437.315,34.456,442.862,34.456z M434.309,62.196h17.107v57.792h-17.107
		V62.196z"/>
	<path fill="#49B2C9" d="M466.557,62.196h17.107v9.131c4.275-7.397,11.441-10.749,19.418-10.749
		c11.674,0,20.227,8.322,20.227,21.961v37.449h-17.105V95.832c0-8.207,0-20.69-10.75-20.69c-6.936,0-11.096,5.201-11.789,17.222
		v27.625h-17.107V62.196z"/>
	<path fill="#49B2C9" d="M554.17,92.941v27.047h-17.107V34.456h17.107v53.516l19.188-25.775h19.996l-22.539,27.278l24.85,30.514
		h-19.996L554.17,92.941z"/>
</g>
</svg>
