<?xml version="1.0" encoding="UTF-8"?><svg id="uuid-8e324b71-7a07-4f63-8d6a-e143acd373a3" xmlns="http://www.w3.org/2000/svg" viewBox="0 0 620.5 667.74"><path d="M620.5,667.74h-2.03s-156.17-.61-156.17-.61l-.31-.92-43.35-128.8-42.31,41.2,26.05,88.99-130.38-.06-60.86-149.3-74.55,148.91h-.84s-135.75.6-135.75.6l41.22-170.19-7.1-85.57.57-.45,215.85-173.68-94.37-168.69.17-.56L177.4,0l1.37.52,232.25,88.71-28.12,20.74,143.72,164.22.06.4,18.6,131.33,3.31,81.63,71.91,180.19ZM36.96,413.2l7.01,84.57-.05.21L3.48,665l131.42-.58,76.49-152.81,62.44,153.18,124.9.06-25.49-87.06.59-.57,46.01-44.8,44.42,131.98,152.19.59-70.6-177.1-3.31-81.73-18.53-130.79-145.14-165.84,26.49-19.53L179.16,3.6l-20.04,65.25,94.93,169.69-.9.72L36.96,413.2Z" fill="#1d1d1b"/><path d="M196.79,667.74l-19.95-87.1.22-.44,34.34-68.59,63.56,155.91-78.16.22ZM179.72,580.99l19.25,84.01,71.92-.2-59.75-146.57-31.42,62.75Z" fill="#1d1d1b"/><path d="M65.19,667.46l119.41-196.22,33.76-142.36-5.86,186.66-75.9,151.61-71.4.31ZM214.79,355.74l-27.75,116.73-116.98,192.24,64.84-.28,75.01-149.84,4.88-158.84Z" fill="#1d1d1b"/><path d="M374.14,580.74l-14.1-45.72.05-.31,25.49-160.88,35.16,161.55-46.6,45.37ZM362.84,534.81l12.6,40.85,42.31-41.2-31.74-145.85-23.16,146.2Z" fill="#1d1d1b"/><path d="M342.37,427.47l-91.32-188.68-91.19-165.44,162.49,127.73-49.37-15.54,82.43,74.89-53.3-4.64,40.25,171.68ZM168.76,83.81l84.73,153.72,80.6,166.52-35.48-151.32,48.99,4.27-85.64-77.81,46.96,14.79-140.15-110.17Z" fill="#1d1d1b"/></svg>